<svg xmlns="http://www.w3.org/2000/svg" viewBox="0 0 1089.64 1281.24"><title>レイヤー 1</title><path d="M847.22,1280.74H241.46c2.54-1.59,5.51-1.53,8.31-1.89a176.8,176.8,0,0,0,29.46-6.46,171.53,171.53,0,0,0,48.38-23.84c19.44-13.58,36-30.23,50.53-48.84,15.92-20.35,29.1-42.41,40.69-65.47,5.31-10.57,10.11-21.38,14.64-32.3s8.74-21.63,12.74-32.58c4.61-12.6,8.9-25.31,12.51-38.25,3.48-12.45,7.46-24.78,10.62-37.31,4.1-16.25,7.76-32.6,11.29-49,2.82-13.11,5.22-26.31,7.69-39.49q2.31-12.24,4.28-24.55c1.39-8.67,2.64-17.37,3.89-26.06.46-3.16.79-6.34,1.09-9.52.06-.68.5-1.57-.7-2.25-.8.87-1.67,1.74-2.44,2.69a240.61,240.61,0,0,1-29.32,30.3,264.61,264.61,0,0,1-46.24,32.45A282.09,282.09,0,0,1,378,927.17a309,309,0,0,1-98,18.21c-9,.17-17.89-.12-26.84-.65-8.8-.53-17.51-1.64-26.2-2.9-9-1.31-17.92-3.21-26.78-5.38a290.08,290.08,0,0,1-33.42-10.2,287,287,0,0,1-51.44-25.56,262.12,262.12,0,0,1-44-34.61,239.34,239.34,0,0,1-41.28-53.31,220.61,220.61,0,0,1-20.39-49,193.57,193.57,0,0,1-7.09-40A4.38,4.38,0,0,0,.5,720.1V690.34c1.51-.44,1.79-1.67,1.91-3,.32-3.49.68-7,1-10.48a223,223,0,0,1,3.16-22.29A322,322,0,0,1,20.3,604.23c8.77-24.63,20.32-48,33.6-70.43A600.81,600.81,0,0,1,91,479c16-21.25,33.09-41.51,50.94-61.17,26.57-29.25,54.58-57.1,83.37-84.16,19.57-18.41,39.44-36.5,59.25-54.65q22.62-20.75,45.44-41.3c23.25-21,46.45-42.1,69.13-63.74,19.56-18.66,38.79-37.64,57.35-57.3q15-15.89,29.21-32.44Q503.21,63.89,519,42.1a431.26,431.26,0,0,0,25-38.68c.44-.77,1-1.45,1.78-2.54.69,1,1.15,1.64,1.52,2.3,1.5,2.64,2.91,5.33,4.48,7.93A508.12,508.12,0,0,0,585.6,59.92c11.68,15,24,29.53,36.85,43.59q21.34,23.38,43.95,45.59,35.55,35,72.61,68.45,30.6,27.67,61,55.56c21.24,19.43,42.58,38.75,63.58,58.44C895,361,925.49,391.33,954.22,423.4q19.86,22.16,38.26,45.54c10,12.71,19.36,25.85,28.54,39.13,7.37,10.66,14,21.78,20.48,33a421.48,421.48,0,0,1,24.71,50.86,299,299,0,0,1,14,42.77c4.12,16.93,7.6,34,8.08,51.5a24.13,24.13,0,0,0,.84,4.14V720.1a14,14,0,0,0-.83,3.2,139.22,139.22,0,0,1-2.79,23.28,202.09,202.09,0,0,1-8.37,30.93A228.4,228.4,0,0,1,1034.84,850,259,259,0,0,1,990.1,891.1,284.84,284.84,0,0,1,932.81,923a302.37,302.37,0,0,1-148.44,20.61,331.76,331.76,0,0,1-39.62-7,283.5,283.5,0,0,1-68.31-26A277.87,277.87,0,0,1,639,886.45a250.18,250.18,0,0,1-47.37-47.29,11,11,0,0,0-1.81-1.4c.11,1.55.11,2.48.24,3.39q1.23,8.54,2.5,17.06c1.2,8,2.32,16.11,3.61,24.15q2.07,13,4.4,25.95c1.75,9.58,3.49,19.16,5.54,28.67,3.09,14.37,6.25,28.72,9.73,43,3.33,13.64,6.87,27.23,10.74,40.72,3.26,11.36,7.07,22.56,10.76,33.78q9.36,28.46,21.45,55.88a481.1,481.1,0,0,0,27,52.91c11.46,19.12,24.33,37.18,39.45,53.58,15.49,16.82,32.91,31.23,53,42.35a171.82,171.82,0,0,0,38.14,15.31,174.78,174.78,0,0,0,26.84,5C844.61,1279.66,846.1,1279.6,847.22,1280.74Z" style="fill:#fff;stroke:#000;stroke-miterlimit:10"/><path d="M590.79,654.31c-16.5-1-38-2-57-2-21,0-41,1-62,2l-19,52.5c-11,29.5-10,44.5-5.5,56,4.5,10.5,21,14,39,16,3,0,4.5,1,4.5,6.5s-1.5,6.5-5.5,6.5c-18.5-1-44-1-62.5-1-17.5,0-36,0-52.5,1-4.5,0-5.5-1-5.5-6.5s1-6.5,5.5-6.5c13.5-2,22-8.5,29.5-15.5,10-10,19.5-28.5,30.5-58.5l60-162c23.5-63,28-78.5,36-105l39.5-18c3.5,0,5.5,1,6.5,4.5,10,31,19,56,41.5,121.5l56.5,163c10,29.5,17,47,25,57,8.5,10.5,13.5,11.5,32.5,13,5.5,0,6.5,1,6.5,6.5s-1,6.5-6.5,6.5c-21.5-.5-49.5-1-71-1-19.5,0-49,.5-70.5,1-3.5,0-4-1-4-6.5s1-6.5,4-6.5c19-1,31.5-3,34.5-13,3.5-11,.5-25-9-52.5Zm-37-107.5c-11.5-33-15.5-47.5-21-65.5-7,19.5-11,32.5-22.5,64.5l-32,88.5c16.5,1,36.5,1,55.5,1,16,0,35.5,0,50-1Z" style="fill:#fff;stroke:#000;stroke-miterlimit:10"/></svg>